PathFileType	4	(X/Y/Z)	Patient4_TMGait_0pt4_01_left_15.trc.trc
DataRate	CameraRate	NumFrames	NumMarkers	Units	OrigDataRate	OrigDataStartFrame	OrigNumFrames
76.502732240437	76.502732240437	4	33	mm	76.502732240437	36	       141
Frame#	Time	Sacral			L.Shoulder			Chest			R.Shoulder			Neck			R.ASIS			L.ASIS			R.Thigh.Superior			R.Thigh.Lateral			R.Thigh.Inferior			R.Patella			L.Thigh.Superior			L.Thigh.Lateral			L.Thigh.Inferior			L.Patella			L.Shank.Superior			L.Shank.Lateral			L.Shank.Inferior			R.Shank.Superior			R.Shank.Lateral			R.Shank.Inferior			R.Heel			R.Midfoot.Superior			R.Midfoot.Lateral			R.Toe			L.Heel			L.Midfoot.Lateral			L.Midfoot.Superior			L.Toe			L.Elbow			L.Wrist			R.Elbow			R.Wrist			
		X1	Y1	Z1	X2	Y2	Z2	X3	Y3	Z3	X4	Y4	Z4	X5	Y5	Z5	X6	Y6	Z6	X7	Y7	Z7	X8	Y8	Z8	X9	Y9	Z9	X10	Y10	Z10	X11	Y11	Z11	X12	Y12	Z12	X13	Y13	Z13	X14	Y14	Z14	X15	Y15	Z15	X16	Y16	Z16	X17	Y17	Z17	X18	Y18	Z18	X19	Y19	Z19	X20	Y20	Z20	X21	Y21	Z21	X22	Y22	Z22	X23	Y23	Z23	X24	Y24	Z24	X25	Y25	Z25	X26	Y26	Z26	X27	Y27	Z27	X28	Y28	Z28	X29	Y29	Z29	X30	Y30	Z30	X31	Y31	Z31	X32	Y32	Z32	X33	Y33	Z33	

36	19.097500000000	814.840182330267	1013.437501192437	474.783069458446	963.752735673916	1429.860898133594	254.874922826821	1095.854621842489	1367.056329138724	395.470348318034	1047.043125913310	1449.348688895636	579.472333151067	977.472248396844	1497.124367187252	419.658239980496	1055.135575897358	942.790405520446	557.509020196844	1002.283800059119	960.666495316914	288.095766413324	1059.292064211149	730.766767604338	537.607519448118	969.668078918496	634.928435525502	614.662222289256	1028.571098540153	567.501147205998	533.092121590505	1016.500958895054	475.643514716652	548.552679934160	1066.679176656503	759.113699500091	313.760262991820	985.371348711383	637.140841817685	257.169384779457	1083.757165973098	566.076394011558	308.442682605217	1090.165466937140	494.960234527767	314.884624230377	1062.588925232315	421.233690421712	308.654196159403	968.782374054103	307.357572463526	262.952781059846	1026.867893243237	194.100630980296	325.759938194988	965.716998998111	397.261281737262	561.442610568384	873.997004204976	317.761677233248	632.737194210521	889.743270076683	211.800706124067	575.178333773516	722.858620978510	69.066336771793	560.627477217004	901.368226577807	100.967927697974	586.755485489166	808.930603720469	48.813929243738	628.892189782704	1014.387660029690	37.803080454050	606.228307491815	905.001689551661	38.813432881310	375.823154282517	971.256294899136	35.471868527043	288.902070153258	1056.454399491049	96.775419830762	308.071871574130	1181.948145173600	45.668180316251	268.356046450939	892.635043937358	1081.193976464660	152.859504521581	958.286047785695	832.349302620364	104.026257361124	1102.968479983424	1111.571065111482	710.012207571806	1305.788440275674	990.183614568820	612.166599275954	
37	19.110571428571	814.064118180283	1013.999198119315	470.795894859711	963.550987663645	1430.648248939330	251.416577974405	1095.047327367738	1367.926464214133	392.578588950851	1045.326155831389	1450.052280651047	576.387768250968	976.509190588250	1497.853462785520	416.296850791614	1054.063912065936	943.465670873664	554.379439990024	1002.188816215976	961.386031020764	284.844050366808	1060.589298130519	731.855313199466	534.795844034657	972.411760816548	635.223911977076	612.187628147756	1032.826076699267	568.058222047517	530.998435025323	1021.699171149936	474.705417249011	547.773220871260	1064.955395930662	758.468558551097	309.892663479040	981.644097048713	637.065729725948	254.816357275117	1079.484807253838	565.284620329037	305.864232267539	1085.294538761003	494.564717349308	312.941037935161	1057.748017431961	420.984796707761	306.989650981147	963.833215566265	307.052977730512	261.839997371344	1021.802162898542	194.000829398428	325.098572264572	968.641950424240	397.331349504336	560.523973174074	874.623335088478	320.314176626819	631.502020907254	888.862598655443	213.569925054794	575.047401664014	719.114684279277	74.191601218410	560.675811715941	898.332874615265	101.887475020776	587.015297324561	804.675135510161	51.572347922659	628.806481361767	1009.449031977676	37.577430983927	606.051299150874	899.811174210226	38.791544195387	375.716432657956	966.050917485793	35.403565285431	288.771591376675	1051.262619935798	96.687827309288	307.880449691983	1176.789444342935	45.514930712318	268.240752098526	894.840380698658	1082.112456713237	147.450371852443	967.150294722073	835.130095354212	97.230540668220	1093.823628082263	1110.813170675803	707.263422038082	1291.458800190181	976.178270500014	615.009802378852	
38	19.123642857143	813.183597707647	1014.556954239730	466.840664593608	963.555138348858	1431.413012889435	247.995126788138	1094.309564038415	1368.703358520559	389.809519498295	1043.586158709146	1450.650024473582	573.402874145389	975.625911209752	1498.528404734826	413.007282870038	1052.836542041584	944.078862655007	551.335089167853	1002.023244860988	962.052067149742	281.684563159382	1062.169970428884	733.035604309324	532.073375982388	975.533097219779	635.508989637758	609.759888788501	1037.621356167517	568.702825305892	528.996651120376	1027.439913783371	473.858809485459	547.033143178886	1062.953903210054	757.692006958453	306.185748886619	977.770260194353	636.974840227953	252.510619153591	1074.975795313242	564.486795932980	303.512177137338	1080.147412685122	494.148491727420	311.120935092535	1052.673757167882	420.747271611193	305.406365720624	958.720039110620	306.720006986613	260.822741490019	1016.632732975527	193.897461441240	324.492288483060	972.124889701130	397.514044334285	559.608947087615	875.829045798389	323.096469696873	630.260175080095	888.428467538676	215.591468863289	574.894701460994	715.719165039441	79.964331987461	560.703173617074	895.592602886681	102.961495229475	587.273195542168	800.625757594010	54.802339450155	628.708104743689	1004.546628280706	37.338533992814	605.857314912566	894.588139322113	38.748246705627	375.652895270082	960.802055423710	35.316963171241	288.676799616255	1046.029615840384	96.566260994583	307.721831961193	1171.582462482386	45.333996914605	268.136053733187	896.914804690831	1083.170149289675	141.966868457893	976.058370147647	838.306671570788	90.323907386892	1084.654788135066	1110.102205056184	704.474617757139	1276.177977635138	962.221232747599	618.423992586645	
39	19.136714285714	812.187685237905	1015.088784439773	462.949095914135	963.746873485345	1432.122287729108	244.631412309832	1093.636728206808	1369.353951041388	387.172046517927	1041.843658661523	1451.122682136622	570.526569641402	974.825532260231	1499.127229978890	409.799051685634	1051.441831272053	944.624006231744	548.377949185870	1001.767934925686	962.654210309051	278.608318616945	1064.020077815077	734.321113861079	529.440425577363	979.030972538751	635.795714689059	607.381497178552	1042.933771393967	569.459202350894	527.079819507013	1033.688112437319	473.153825374467	546.288467986801	1060.745457819088	756.850155571315	302.735033158500	973.913878154065	636.890212935920	250.244417770829	1070.359673503502	563.710727247476	301.435695061602	1074.851939980001	493.717866172137	309.467057575018	1047.483780567215	420.518845761554	303.936710478638	953.557833696768	306.376351817197	259.877809743585	1011.413522943030	193.791383686100	323.948174948998	976.171842070055	397.825969946309	558.664669843022	877.653026694142	326.109789738819	629.001165780663	888.459243738072	217.881877371063	574.691255694045	712.724609141623	86.431761807779	560.698239338987	893.156290469051	104.231244055030	587.507226663782	796.816697683897	58.575334712570	628.593034953789	999.689135757967	37.054758563688	605.663344875415	889.339948863409	38.695720131162	375.614549691671	955.523761311732	35.225981019630	288.605675879285	1040.771216147438	96.424890220367	307.594804451625	1166.344596883516	45.130298882719	268.043744127940	898.879320657421	1084.337328266930	136.386605700739	984.962577165895	841.860760618993	83.270319621178	1075.481825941161	1109.428456900651	701.681106684438	1259.944389255958	948.485504050459	622.400003333419	
